<svg xmlns="http://www.w3.org/2000/svg" xmlns:xlink="http://www.w3.org/1999/xlink" width="1200" height="630" viewBox="0 0 1200 630">
  <title>makestopmotion.com — free online stop motion maker</title>
  <defs>
    <clipPath id="canvas"><rect width="1200" height="630" rx="0"/></clipPath>
  </defs>
  <g clip-path="url(#canvas)">
    <image href="clay-studio-source.png" xlink:href="clay-studio-source.png" width="1200" height="630" preserveAspectRatio="xMidYMid slice"/>
    <path d="M0 0h521c32 67 38 142 12 214-29 80-8 143 13 207 20 62 4 139-28 209H0Z" fill="#fff8e8" fill-opacity=".96"/>
    <g transform="translate(64 54) scale(.82)">
      <rect x="2" y="2" width="60" height="60" rx="14" fill="#fff8e8"/>
      <rect x="8" y="8" width="37" height="37" rx="8" fill="#1688c4" stroke="#171713" stroke-width="3"/>
      <rect x="18" y="18" width="38" height="38" rx="8" fill="#fff8e8" stroke="#171713" stroke-width="3"/>
      <path d="M40 28c5 0 9 4 9 9 0 7-5 12-12 12-6 0-11-4-11-10 0-4 2-8 6-9 2-2 5-2 8-2Z" fill="#ff7a1a" stroke="#171713" stroke-width="2.5"/>
      <circle cx="35" cy="37" r="2" fill="#171713"/>
      <circle cx="43" cy="36" r="2" fill="#171713"/>
      <path d="M35 43c2 2 5 2 7 0" fill="none" stroke="#171713" stroke-linecap="round" stroke-width="2"/>
      <path d="m48 14 2 4 4 2-4 2-2 4-2-4-4-2 4-2 2-4Z" fill="#d7ef32" stroke="#171713" stroke-linejoin="round" stroke-width="1.5"/>
    </g>
    <text x="124" y="90" fill="#171713" font-family="Helvetica" font-size="30" font-weight="bold" letter-spacing="-1.3">
      <tspan>make</tspan><tspan fill="#f36d12">stopmotion</tspan><tspan>.com</tspan>
    </text>
    <text x="64" y="238" fill="#171713" font-family="Helvetica" font-size="74" font-weight="bold" letter-spacing="-4">
      <tspan x="64" dy="0">Make things</tspan>
      <tspan x="64" dy="76">move.</tspan>
    </text>
    <path d="M66 337c102 18 205 18 309 0" fill="none" stroke="#ff7a1a" stroke-linecap="round" stroke-width="13"/>
    <text x="67" y="406" fill="#4b4a43" font-family="Helvetica" font-size="25" font-weight="bold">
      Stop motion, hands-free.
    </text>
    <g transform="translate(64 458)" font-family="Helvetica" font-size="18" font-weight="bold">
      <rect width="110" height="42" rx="21" fill="#d7ef32" stroke="#171713" stroke-width="2"/>
      <text x="55" y="27" text-anchor="middle" fill="#171713">FREE</text>
      <rect x="122" width="125" height="42" rx="21" fill="#fff8e8" stroke="#171713" stroke-width="2"/>
      <text x="184.5" y="27" text-anchor="middle" fill="#171713">ONLINE</text>
      <rect x="259" width="140" height="42" rx="21" fill="#1688c4" stroke="#171713" stroke-width="2"/>
      <text x="329" y="27" text-anchor="middle" fill="#fff8e8">PRIVATE</text>
    </g>
  </g>
</svg>
